Coordinates
version=1
nRows=32
nColumns=22
inDegrees=yes

Units are S.I. units (second, meters, Newtons, ...)
If the header above contains a line with 'inDegrees', this indicates whether rotational values are in degrees (yes) or radians (no).

endheader
time	pelvis_tilt	pelvis_list	pelvis_rotation	pelvis_tx	pelvis_ty	pelvis_tz	hip_flexion_r	hip_adduction_r	hip_rotation_r	knee_angle_r	ankle_angle_r	subtalar_angle_r	hip_flexion_l	hip_adduction_l	hip_rotation_l	knee_angle_l	ankle_angle_l	subtalar_angle_l	lumbar_extension	lumbar_bending	lumbar_rotation
      0.01000000	     -3.23040227	      0.47304923	     -4.93306894	     -1.15810468	      0.92132153	      0.74220157	      4.41602332	     -4.20655391	     -0.64749788	    -13.97484615	      8.26951868	   -176.61601686	     -1.93598022	     -4.34522451	    -11.64037531	     -7.08224045	     10.42444833	      4.89536011	     -2.32738026	     -3.09746650	      0.48344085
      0.02000000	     -3.27212472	      0.49913082	     -4.99952030	     -1.15734365	      0.92105014	      0.74301379	      4.61286779	     -4.15857910	     -0.53066024	    -14.35870467	      8.46720865	   -176.83372568	     -1.93053040	     -4.36755419	    -11.71976146	     -7.14013724	     10.50562488	      4.90505730	     -2.29526962	     -3.13966982	      0.49097840
      0.03000000	     -3.33894835	      0.51964237	     -5.08045762	     -1.15645053	      0.92070350	      0.74403708	      4.85959787	     -4.08411999	     -0.38783481	    -14.80181430	      8.67935859	   -177.11614944	     -1.89711372	     -4.41314501	    -11.81782000	     -7.22753609	     10.61547136	      4.92058086	     -2.23895793	     -3.17949855	      0.49147810
      0.04000000	     -3.40800750	      0.53897509	     -5.17956202	     -1.15544945	      0.92031653	      0.74527780	      5.11904310	     -3.98939500	     -0.21153979	    -15.27489788	      8.90955323	   -177.37636488	     -1.85586778	     -4.47609698	    -11.92681273	     -7.35144734	     10.74651282	      4.94129958	     -2.18421654	     -3.22717961	      0.48681572
      0.05000000	     -3.49488300	      0.55476565	     -5.29500006	     -1.15437513	      0.91987483	      0.74672778	      5.40545103	     -3.87114822	     -0.00746733	    -15.76877932	      9.14385283	   -177.64295552	     -1.78824706	     -4.56093454	    -12.04813387	     -7.51030146	     10.89838737	      4.96842357	     -2.11000816	     -3.27747349	      0.47808574
      0.06000000	     -3.58045160	      0.56246981	     -5.42908279	     -1.15323170	      0.91941346	      0.74837438	      5.68746619	     -3.72810439	      0.21513437	    -16.26334424	      9.38615873	   -177.87979438	     -1.71460475	     -4.67063016	    -12.17806184	     -7.70690416	     11.07736486	      4.99998248	     -2.03798867	     -3.32600606	      0.45871570
      0.07000000	     -3.67193230	      0.55760661	     -5.56561595	     -1.15205390	      0.91893241	      0.75020325	      5.96541760	     -3.55465816	      0.43760523	    -16.74778466	      9.60772078	   -178.11206344	     -1.61890595	     -4.81139598	    -12.30367731	     -7.94587015	     11.26567225	      5.03826653	     -1.96177845	     -3.37137375	      0.44401159
      0.08000000	     -3.76103233	      0.53669938	     -5.71322362	     -1.15081467	      0.91844195	      0.75220491	      6.22086768	     -3.35085064	      0.64559275	    -17.20753508	      9.82297570	   -178.33688468	     -1.51469033	     -4.98424473	    -12.43619692	     -8.22570257	     11.47815475	      5.08303304	     -1.88513868	     -3.40524506	      0.42136457
      0.09000000	     -3.83710718	      0.49322914	     -5.86781041	     -1.14952839	      0.91795967	      0.75436028	      6.44108895	     -3.11306919	      0.82056123	    -17.64065711	     10.02766704	   -178.55401027	     -1.40573284	     -5.19511824	    -12.56066922	     -8.56185912	     11.70831353	      5.13103858	     -1.82327425	     -3.41880029	      0.40444298
      0.10000000	     -3.90511049	      0.42305045	     -6.02394502	     -1.14817978	      0.91747927	      0.75665663	      6.61899772	     -2.83895239	      0.94727189	    -18.03080644	     10.21457791	   -178.77407149	     -1.28328974	     -5.44876456	    -12.68276571	     -8.95999103	     11.95938607	      5.18129788	     -1.76792623	     -3.40671263	      0.39263239
      0.11000000	     -3.95250419	      0.31964220	     -6.17803262	     -1.14676722	      0.91701599	      0.75908980	      6.73262007	     -2.52521247	      1.01832192	    -18.36610374	     10.37999861	   -178.97538351	     -1.15644942	     -5.75193164	    -12.79812096	     -9.42851638	     12.24143379	      5.22387439	     -1.73645364	     -3.36424609	      0.38218076
      0.12000000	     -3.99696629	      0.17944245	     -6.33369532	     -1.14529627	      0.91653922	      0.76165839	      6.80300213	     -2.16996835	      1.02375774	    -18.65037956	     10.52152713	   -179.18841939	     -0.99884309	     -6.11177468	    -12.90720139	     -9.98470729	     12.52931121	      5.26395791	     -1.70869034	     -3.28372283	      0.38784168
      0.13000000	     -4.01206144	      0.00043186	     -6.48753503	     -1.14376135	      0.91607451	      0.76434673	      6.78585709	     -1.77325381	      1.01249393	    -18.85621770	     10.63410332	   -179.35725200	     -0.83252786	     -6.52594280	    -12.98506553	    -10.64087443	     12.87920836	      5.27887552	     -1.71655908	     -3.16471959	      0.40457350
      0.14000000	     -4.03549953	     -0.21185304	     -6.63614510	     -1.14215856	      0.91555581	      0.76713125	      6.72660600	     -1.34115520	      0.99834175	    -18.99498217	     10.72411536	   -179.55390087	     -0.59877672	     -6.99567206	    -13.03593539	    -11.42959041	     13.23287276	      5.28477935	     -1.71047876	     -3.00477373	      0.44172574
      0.15000000	     -4.00919231	     -0.45326405	     -6.78070233	     -1.14046722	      0.91503600	      0.76999331	      6.55468906	     -0.88616815	      1.01541530	    -19.04912353	     10.83653238	   -179.66333112	     -0.37136848	     -7.50232992	    -13.02247425	    -12.32878103	     13.64678447	      5.24589371	     -1.76469041	     -2.81668209	      0.49814686
      0.16000000	     -3.97003680	     -0.70915687	     -6.90861268	     -1.13868907	      0.91444941	      0.77288644	      6.30754215	     -0.42185039	      1.09574146	    -19.01298114	     10.97121686	   -179.74289535	     -0.08159569	     -8.03627823	    -12.94310533	    -13.38283410	     14.07050449	      5.17519221	     -1.83179093	     -2.60845163	      0.56765112
      0.17000000	     -3.91374533	     -0.96786128	     -7.01067981	     -1.13685117	      0.91377784	      0.77576464	      6.00540882	      0.03967632	      1.28332608	    -18.93324107	     11.09534480	   -179.78370252	      0.28260926	     -8.57932117	    -12.75279933	    -14.61387120	     14.51030349	      5.05697187	     -1.91903881	     -2.38796675	      0.62611304
      0.18000000	     -3.83447254	     -1.22883435	     -7.08595693	     -1.13497368	      0.91302264	      0.77863828	      5.63966055	      0.49348027	      1.52809818	    -18.79427674	     11.27029058	   -179.75231243	      0.72623880	     -9.12905705	    -12.45447363	    -16.03579005	     14.96038087	      4.88368251	     -2.04128734	     -2.16622942	      0.69475929
      0.19000000	     -3.73325826	     -1.50276920	     -7.13399663	     -1.13310632	      0.91218403	      0.78150405	      5.23581610	      0.94832872	      1.79520822	    -18.63914739	     11.48721840	   -179.65864133	      1.26923995	     -9.69695136	    -12.03479181	    -17.68067528	     15.40594702	      4.66388298	     -2.20718365	     -1.93113043	      0.77223881
      0.20000000	     -3.62717796	     -1.80587391	     -7.14809832	     -1.13130494	      0.91126369	      0.78434623	      4.83455012	      1.42252798	      2.02381537	    -18.50547779	     11.70670481	   -179.52022433	      1.95409879	    -10.29991999	    -11.48928784	    -19.58575483	     15.83174083	      4.39211362	     -2.40545492	     -1.66076400	      0.85940599
      0.21000000	     -3.51053661	     -2.14566357	     -7.13434669	     -1.12962670	      0.91029827	      0.78718426	      4.44946238	      1.92524484	      2.16117068	    -18.41751324	     11.94109098	   -179.36090662	      2.78536394	    -10.94252543	    -10.82900706	    -21.76324381	     16.19315223	      4.08801634	     -2.65724344	     -1.35575682	      0.95849579
      0.22000000	     -3.37961927	     -2.52413433	     -7.08211101	     -1.12807615	      0.90932169	      0.78996060	      4.08975832	      2.45738069	      2.17788388	    -18.39684759	     12.16829512	   -179.19853314	      3.77026323	    -11.61855903	    -10.06516469	    -24.22017142	     16.44484247	      3.74836199	     -2.96744063	     -1.01043292	      1.06449139
      0.23000000	     -3.20769447	     -2.93316404	     -6.98855395	     -1.12663076	      0.90840006	      0.79262054	      3.73359985	      3.00975082	      2.08127574	    -18.45299527	     12.39210225	   -179.05601187	      4.87489286	    -12.30474893	     -9.21912743	    -26.93390158	     16.53149247	      3.38016464	     -3.36721444	     -0.63404034	      1.17354314
      0.24000000	     -3.03097897	     -3.31867962	     -6.85502215	     -1.12530641	      0.90750439	      0.79510393	      3.44954545	      3.52947439	      1.87531400	    -18.62627217	     12.61294683	   -178.92441142	      6.14380592	    -12.93596378	     -8.31489785	    -29.88252049	     16.35290035	      2.88856755	     -3.80480875	     -0.28074770	      1.29050976
      0.25000000	     -2.67343479	     -3.72511160	     -6.67134730	     -1.12394890	      0.90691569	      0.79738976	      2.97054467	      4.05216284	      1.66805193	    -18.79301973	     12.79771742	   -178.87629165	      7.32265901	    -13.52651942	     -7.36726095	    -32.96016271	     16.01192498	      2.48364546	     -4.48043350	      0.08157101	      1.39364494
      0.26000000	     -2.34041003	     -4.03589091	     -6.46005104	     -1.12265175	      0.90635315	      0.79942077	      2.60418314	      4.46760878	      1.38333145	    -19.08445355	     12.99365549	   -178.85111478	      8.66433277	    -13.97062678	     -6.41884261	    -36.17866572	     15.35260681	      1.83361737	     -5.13643770	      0.34976484	      1.53248160
      0.27000000	     -1.88653763	     -4.27841398	     -6.21184696	     -1.12127390	      0.90605447	      0.80120241	      2.11190978	      4.80115727	      1.16772154	    -19.37135805	     13.17755032	   -178.87150793	      9.94712887	    -14.27362327	     -5.48216659	    -39.42842113	     14.47547914	      1.14485683	     -5.93237936	      0.54075192	      1.64504527
      0.28000000	     -1.37845656	     -4.42221230	     -5.94864961	     -1.11980316	      0.90593712	      0.80275932	      1.57765299	      5.02357370	      0.96597405	    -19.67161331	     13.35659274	   -178.92260414	     11.21575902	    -14.41055544	     -4.59163215	    -42.65068845	     13.39005662	      0.38300175	     -6.77911239	      0.62609488	      1.76854629
      0.29000000	     -0.84161964	     -4.44918246	     -5.68318554	     -1.11819687	      0.90597213	      0.80409844	      1.02460139	      5.11639107	      0.79449498	    -19.98702502	     13.53231559	   -178.99654957	     12.46185111	    -14.36263778	     -3.76767901	    -45.77616226	     12.16658610	     -0.40075214	     -7.63611944	      0.58974921	      1.90410437
      0.30000000	     -0.32154094	     -4.34731978	     -5.44421214	     -1.11642773	      0.90610342	      0.80528548	      0.49165565	      5.07332827	      0.68340165	    -20.30357166	     13.72125304	   -179.09285724	     13.69399379	    -14.12641090	     -3.04603611	    -48.73373693	     10.87917218	     -1.17952284	     -8.44146072	      0.41882621	      2.07049483
      0.31000000	      0.17672240	     -4.12771495	     -5.22492581	     -1.11446927	      0.90632146	      0.80631867	     -0.01715017	      4.89619323	      0.55017828	    -20.62571139	     13.89406201	   -179.19127990	     14.89074926	    -13.71433456	     -2.42684283	    -51.45731870	      9.61835852	     -1.76392198	     -9.18877739	      0.12736262	      2.24868642
      0.32000000	      0.60369190	     -3.79469419	     -5.05303284	     -1.11233073	      0.90656063	      0.80728013	     -0.46075891	      4.60247810	      0.48639503	    -20.93389255	     14.07665861	   -179.29312612	     16.07978399	    -13.15185420	     -1.95285818	    -53.89522004	      8.45667431	     -2.18328088	     -9.81761416	     -0.28114014	      2.44605842
